# xmcd
#
# Track frame offsets:
# 150
# 16545
# 35232
# 55574
#
# Disc length: 856 seconds
#
# Revision: 1
# Processed by: cddbd v1.5.2PL0 Copyright (c) Steve Scherf et al.
# Submitted via: CedeCatalogueitor 2.6.0.6 http://personales.ya.com/cdcatalogueitor
#
DISCID=24035604
DTITLE=Expatriate - Home
DYEAR=1900
DGENRE=
TTITLE0=Gotta Get Home
TTITLE1=Blackbird
TTITLE2=Heart Attack
TTITLE3=Aviation At Night
EXTD=
EXTT0=
EXTT1=
EXTT2=
EXTT3=
PLAYORDER=
